<?xml version="1.0" encoding="utf-8"?>
<!-- Generator: Adobe Illustrator 22.0.1, SVG Export Plug-In . SVG Version: 6.00 Build 0)  -->
<svg version="1.2" baseProfile="tiny" id="Capa_1" xmlns="http://www.w3.org/2000/svg" xmlns:xlink="http://www.w3.org/1999/xlink"
	 x="0px" y="0px" viewBox="0 0 262 119" xml:space="preserve">
<g>
	<g>
		<path fill="#FFFFFF" d="M133.1,69.7c-1.5,3-8,16.5-8.4,17c-0.2,0.4-1,0.3-1.4,0.2c-0.3-0.1-8.7-15.8-9.4-17.2
			c0-0.1-0.1-0.2-0.1-0.3c-0.1,0.1-0.2,0.2-0.2,0.3c0,1.7,0,12.8,0,16.5c0,0.5-0.1,0.6-0.6,0.6c-1.6-0.1-1.3,0.2-1.3-1.2
			c0-6.7,0-13.4,0-20c0-0.7,0-0.7,0.8-0.8c0.7,0,1.4,0,2.1,0c0.5,0,1.1-0.1,1.5,0.1c0.3,0.2,6.5,12.5,7.6,14.5
			c0.2,0.4,0.9,2.5,1.3,1.2c0.9-1.6,6.3-11.9,8-15.4c0.1-0.3,0.2-0.4,0.5-0.4c1.2,0,2.3,0,3.5,0c0.5,0,0.5,0.2,0.5,0.6
			c0,3.7,0,17.5,0,20.7c0,0.7,0,0.7-0.8,0.7c-0.9,0-1.8-0.1-2.7,0c-0.7,0.1-0.7-0.2-0.7-0.7c0-5.2,0-10.4,0-15.6c0-0.3,0-0.5,0-0.8
			C133.2,69.8,133.1,69.8,133.1,69.7z"/>
		<path fill="#FFFFFF" d="M165.4,76c0-3.4,0-6.9,0-10.3c0-0.5,0-0.7,0.7-0.7c3.2,0,6.5-0.1,9.7,0.1c1.7,0.1,3.4,0.7,4.6,1.8
			c0.9,0.8,1.5,2,1.5,3.3c0,0.7,0,1.3-0.2,2c-0.5,1.7-1.6,2.7-3,3.4c-0.4,0.2-1.6,0.7-1.9,0.8c0.2,0.4,7.6,10.6,7.4,10.6
			c-1.3,0-2.7,0-4,0c-0.2,0-0.5-0.1-0.7-0.3c-1-1.6-5-7.4-5.6-8.1s-1.2-1.8-4.1-1.8c-0.4,0-0.3,0.3-0.3,0.6c0,2.7,0.2,9.2-0.1,9.5
			c-0.3,0.3-1,0.2-1.5,0.1c-0.8,0-1.7-0.1-2.5-0.1c0-0.8,0-1.6,0-2.4C165.4,81.6,165.4,78.8,165.4,76z M169.6,70.9c0,1.3,0,2.7,0,4
			c0,0.4,0.1,0.6,0.6,0.7c1,0.1,1.8-0.4,2.7-0.4c1.6,0,2.8-0.7,3.8-1.9c0.4-0.5,0.8-1.2,0.9-2c0.1-0.8,0-1.8-0.5-2.3
			c-1-1.5-2.5-2.4-4.4-2.3c-1,0-2,0-3,0.1c0,1-0.1,2-0.1,3C169.6,70,169.6,70.4,169.6,70.9z"/>
		<path fill="#FFFFFF" d="M39,75.9c0-3.4,0-6.8,0-10.2c0-0.7,0-0.7,0.8-0.7c0.8,0,1.7,0,2.5,0c0.8,0,0.8,0,0.8,0.9
			c0,2.8,0,5.5,0,8.3c0,0.5,0,0.7,0.7,0.7c3.3,0,6.6,0,9.9,0c0.5,0,0.6-0.1,0.6-0.6c0-2.9,0-5.7,0-8.6c0-0.6,0.1-0.7,0.7-0.7
			c1.1,0.1,2.2,0,3.3,0c0,1.1,0.1,2.2,0.1,3.3c0,5.9,0,11.9,0,17.8c0,0.8,0,0.8-0.9,0.8c-1.1,0-2.1,0-3.2,0c0-1-0.1-2.1-0.1-3.1
			c0-2.2,0-4.4,0-6.5c0-0.8,0-0.8-0.7-0.8c-2.6,0-5.2,0-7.8,0c-0.8,0-1.7,0-2.5,0.1c0,0.8-0.1,1.7-0.1,2.5c0,2.4,0,4.9,0,7.3
			c0,0.5-0.1,0.6-0.6,0.6c-1,0-2,0-3,0c-0.4,0-0.5-0.1-0.5-0.5C39,82.9,39,79.4,39,75.9z"/>
		<path fill="#FFFFFF" d="M206.1,65c-0.9,0.8-1.7,1.4-2.4,2c-0.7,0.6-1.5,1-2.2,1.6c-0.8,0.7-1.6,1.4-2.5,2.1
			c-1.3,1.1-2.6,2.1-4,3.1c-0.4,0.3-0.4,0.5-0.1,0.7c1.8,1.4,3.5,3,5.1,4.5c1.6,1.4,3.3,2.8,4.9,4.3c1.1,1,2.4,2,3.5,2.9
			c0.1,0.1,0.2,0.4,0.2,0.5c-0.1,0.1-0.3,0.2-0.4,0.2c-1.3,0-2.7,0-4,0c-0.7,0-1.1-0.3-1.6-0.7c-1.2-1.1-2.4-2.3-3.7-3.4
			c-1.7-1.5-3.5-2.9-5.1-4.5c-0.8-0.8-1.7-1.4-2.7-2.2c0,0.4,0,0.8,0,1.2c0,3,0,5.9,0,8.9c0,0.6-0.1,0.7-0.7,0.7
			c-1.1-0.1-2.2,0-3.3,0c0-1.1-0.1-2.2-0.1-3.3c0-5.9,0-11.9,0-17.8c0-1,0-0.8,0.8-0.8c1.1,0,2.1,0,3.2,0c0,1.1,0.1,2.2,0.1,3.3
			c0,1.8,0,3.6,0,5.4c0,0.9,0.4,0.3,0.6,0.2c0.7-0.5,1.4-1,2.1-1.5c1.4-1.1,2.7-2.3,4.1-3.5c1.5-1.2,3-2.3,4.4-3.5
			c0.4-0.3,0.7-0.4,1.1-0.4C204.3,65,205,65,206.1,65z"/>
		<path fill="#FFFFFF" d="M11.4,75.7c0.1-3.2,0.5-3.6,1.5-5.3c1.4-2.5,3.6-4.2,6.3-5.2c2.1-0.8,4.1-1.1,6.3-0.9c2.6,0.3,5,1.1,6.8,3
			c0.6,0.6,2.3,2.8,1.5,3.3c-0.3,0.2-0.8,0.7-1,0.6c-0.4-0.1-0.6-0.6-0.9-1c-0.8-1.2-1.7-2.5-3.1-3.1c-1.5-0.8-3.2-1.3-4.9-0.7
			c-1,0.3-2.1,0.5-3.1,1.1c-1.9,1-3.5,3-4.2,5.7c-0.5,1.7-0.4,3.5-0.2,5.1c0.2,1.5,0.9,3,2,4.2c1.4,1.5,3.2,2.3,5.2,2.8
			c2.4,0.7,4.2-0.3,6-1.5c1.2-0.7,2-1.8,2.7-3c0.2-0.3,0.4-0.6,0.9-0.2c0.3,0.3,0.7,0.5,1.1,0.8c0.1,0.1,0.1,0.4,0.1,0.5
			c-1.6,2.3-3.6,4-6.2,4.8c-1.7,0.5-3.5,0.9-5.3,0.6c-1.2-0.2-2.4-0.3-3.5-0.7c-1.1-0.4-2.1-0.9-3-1.5c-0.6-0.4-1.1-1.1-1.7-1.6
			c-1.3-1-1.9-2.5-2.6-3.9C11.8,79.3,11.4,79,11.4,75.7z"/>
		<path fill="#FFFFFF" d="M150.3,79.6c-1.2,0-2.3,0-3.5,0c-0.8,0-1.2,0.2-1.5,1c-0.8,1.9-1.9,3.7-2.8,5.5c-0.3,0.6-0.5,0.8-1.1,0.8
			c-0.4,0-0.8,0-1.3,0c-0.1,0-0.2-0.2-0.2-0.3c0.1-0.2,0.2-0.4,0.3-0.7c2.2-4.3,4.5-8.6,6.5-13c1.3-2.7,2.6-5.4,3.9-8.1
			c0.3-0.6,0.6-0.4,0.9-0.5c0.3,0,0.5-0.1,0.8,0.4c1.5,3.2,3.3,6.4,4.7,9.7c1.4,3.2,3.1,6.2,4.5,9.4c0.4,0.9,0.8,1.7,1.2,2.5
			c0.2,0.4,0.1,0.5-0.4,0.5c-1,0-1.9,0-2.9,0c-0.6,0-0.9-0.1-1.2-0.7c-0.7-1.7-1.8-3.2-2.3-4.9c-0.1-0.3-0.4-0.5-0.4-0.8
			c-0.2-0.7-0.6-0.9-1.4-0.9C153,79.7,151.7,79.6,150.3,79.6z M150.4,78c1.2,0,2.3,0,3.5,0c0.5,0,0.5-0.1,0.3-0.6
			c-1.1-2.3-2.3-4.7-3.4-7c-0.1-0.1-0.1-0.2-0.2-0.3c0,0.1-0.1,0.2-0.1,0.3c-1.1,2.1-2.1,4.2-3.2,6.3c-0.2,0.4-0.4,0.8-0.6,1.2
			c0.4,0.1,0.9,0.1,1.3,0.2C148.8,78,149.6,78,150.4,78z"/>
		<path fill="#FFFFFF" d="M63.9,75.9c0-3.4,0-6.8,0-10.2c0-0.5,0-0.8,0.6-0.8c5,0,10,0,15,0c0.7,0,0.7,0.3,0.6,0.8
			c0,0.9,0,0.9-0.8,0.9c-3.6,0-7.1,0-10.7,0c-0.5,0-0.6,0.1-0.6,0.6c0,2.2,0,4.4,0,6.5c0,0.4,0.1,0.5,0.5,0.5c2.3,0,4.6,0,6.8,0
			c0.5,0,0.7,0.2,0.6,0.6c0,0.1,0,0.1,0,0.2c0,0.8,0,0.8-0.9,0.8c-2.1,0-4.1,0-6.2,0c-0.9,0-0.9,0-0.9,0.8c0,2.7,0,5.3,0,8
			c0,0.8,0,0.8,0.7,0.8c3.5,0,7,0,10.5,0c0.3,0,0.8,0.1,0.8,0.2c0.1,0.4,0,0.8,0,1.2c0,0.1-0.4,0.1-0.6,0.1c-2.2,0-4.4,0-6.5,0
			c-2.8,0-5.6,0-8.4,0c-0.6,0-0.7-0.2-0.7-0.7C63.9,82.8,63.9,79.3,63.9,75.9z"/>
		<path fill="#FFFFFF" d="M211.6,76c0-3.4,0-6.9,0-10.3c0-0.6,0.2-0.7,0.7-0.7c4.9,0,9.8,0,14.6,0c0.5,0,0.6,0.2,0.6,0.6
			c0,1.2,0.1,1-0.9,1c-3.1,0-6.2,0-9.2,0c-0.3,0-0.6,0-1,0c-0.5,0-0.8,0-0.7,0.7c0.1,2.1,0,4.2,0,6.4c0,0.5,0.1,0.6,0.6,0.6
			c2.2,0,4.4,0,6.5,0c0.3,0,0.8,0.1,0.8,0.2c0.1,0.4,0,0.8,0,1.2c0,0.1-0.4,0.1-0.6,0.1c-2.2,0-4.5,0-6.7,0c-0.6,0-0.7,0.2-0.7,0.7
			c0,2.7,0,5.4,0,8.1c0,0.7,0,0.7,0.8,0.7c3.4,0,6.8,0,10.2,0c0.8,0,0.8,0,0.8,0.7c0,0.9,0,0.9-0.8,0.9c-4.8,0-9.6,0-14.3,0
			c-0.9,0-0.8,0-0.8-0.8C211.6,82.8,211.6,79.4,211.6,76z"/>
		<path fill="#FFFFFF" d="M83.9,75.9c0-3.4,0-6.8,0-10.2c0-0.7,0-0.7,0.8-0.7c4.6,0,9.2,0,13.8,0c0.6,0,0.7,0.2,0.7,0.7
			c0,0.9,0,0.9-1,0.9c-3.1,0-6.3,0-9.4,0c-0.8,0-0.8,0-0.8,0.9c0,2.1,0,4.1,0,6.2c0,0.5,0.2,0.6,0.6,0.6c2.2,0,4.5,0,6.7,0
			c0.6,0,0.7,0.2,0.7,0.7c0,0.2,0,0.3,0,0.5c0,0.4-0.2,0.4-0.5,0.4c-0.8,0-1.7,0-2.5,0c-1.6,0-3.3,0.1-4.9,0.1c0,1.6,0,3.3-0.1,4.9
			c0,1.8,0,3.6,0,5.4c0,0.5,0,0.8-0.6,0.7c-1.1-0.1-2.3-0.1-3.5-0.1c0-1.1,0-2.2,0-3.3C83.9,81,83.9,78.4,83.9,75.9z"/>
		<path fill="#FFFFFF" d="M239.7,65c3.1,0,6.3,0,9.4,0c0.7,0,0.7,0,0.7,0.8c0,0.8,0,0.8-0.7,0.8c-2,0-3.9,0-5.9,0
			c-1.3,0-1.3,0-1.3,1.3c0,5.9,0,11.9,0,17.8c0,1.3,0,1.3-1.2,1.3c-0.9,0-1.9,0-2.8-0.1c0-0.9-0.1-1.9-0.1-2.8c0-5.4,0-10.8,0-16.2
			c0-1.3,0-1.3-1.3-1.3c-2.1,0-4.1,0-6.2,0c-0.7,0-0.7,0-0.7-0.8c0-0.8,0-0.8,0.7-0.8C233.3,65,236.5,65,239.7,65z"/>
	</g>
	<g>
		<path fill="#FFFFFF" d="M73.3,8.3c-12.8,0-23.1,10.4-23.1,23.1s10.4,23.1,23.1,23.1s23.1-10.4,23.1-23.1S86,8.3,73.3,8.3z
			 M80.5,42.7H66.6v-3.3h13.9V42.7z M80.6,31.2l-0.1,6.6H66.4v-6.4c0,0-6.4-0.1-6-5.2c0.3-3.8,7-3.7,7-3.7s0.5-4.9,6-4.7
			c5.9,0.2,5.9,4.5,5.9,4.5s6.3-0.1,7.1,3.2C87.7,31.2,80.6,31.2,80.6,31.2z"/>
		<path fill="#FFFFFF" d="M127.5,8c-12.8,0-23.1,10.4-23.1,23.1s10.4,23.1,23.1,23.1c12.8,0,23.1-10.4,23.1-23.1S140.3,8,127.5,8z
			 M119.4,29.4l-0.1,13.8c0,0,0.1,0.5-0.6,0.5c-0.7,0-0.7-0.5-0.7-0.5l0-7.4l0.4,0l-0.1-6.4c-3.2-0.9-2.8-4.7-2.4-5.7
			c0.2-0.6,1-1.2,1-1.2s0,2.9,0,3.2c0,0.3,0.3,0.6,0.6,0.6c0.3,0,0.5-0.3,0.5-0.5c0-0.3,0-2.8,0-2.8c0.2-0.7,0.4-1,1-1
			c0.9,0,1,0.9,1,0.9v2.9c0,0,0.1,0.5,0.5,0.5c0.6,0,0.5-0.5,0.5-0.5l-0.1-3.3c0.6,0.1,1.1,1.4,1.1,1.4
			C123.4,28.1,119.4,29.4,119.4,29.4z M128,42.9c0,0-0.1,0.7-0.9,0.7c-0.8,0-0.8-0.7-0.8-0.7l0-5.6l0.3,0l0-5.5l-2.4-0.1l0-11.8
			c0,0,0.5-1.7,2.8-1.7c2.2-0.1,3.1,1.7,3.1,1.7l0.1,12h-2.3L128,42.9z M135.6,29.6l0.1,13.6c0,0-0.2,0.6-0.7,0.5
			c-0.5-0.1-0.7-0.6-0.7-0.6l-0.1-6l0.5,0l-0.1-7.5c-2.5-1-2.5-4.4-2.5-4.4s0.1-2.9,3-2.9s3.4,2.7,3.4,2.7
			C138.8,28.6,135.6,29.6,135.6,29.6z"/>
		<path fill="#FFFFFF" d="M180.9,8.1c-12.8,0-23.1,10.4-23.1,23.1s10.4,23.1,23.1,23.1c12.8,0,23.1-10.4,23.1-23.1
			S193.7,8.1,180.9,8.1z M189.4,43c-0.2,0.2-16.2,0.2-16.6,0c-0.4-0.2-1.6-8.2-1.6-8.2l19.1-0.1C190.3,34.6,189.5,42.7,189.4,43z
			 M190.9,33.4h-20c0,0-1.8-1.6-1.6-3.1c0.3-3.4,3.4-3.3,3.4-3.3s-0.6-1.4,0.7-3.5c1.3-2.1,4.5-1.6,4.5-1.6c1.7-4.4,5.1-3.8,5.1-3.8
			c-1.3,1.1-0.7,2.3-0.7,2.3s1.8-1,3.3,0.2c0.8,0.7,0.6,2.6,0.6,2.6s2.7-0.1,3.5,1c1.4,2-0.3,4-0.3,4s2.1,0.3,2.6,2
			C192.4,31.8,190.9,33.4,190.9,33.4z"/>
	</g>
	<g>
		<path fill="#FFFFFF" d="M53.5,99H50v-1.6h9V99h-3.6v9.1h-1.9V99z"/>
		<path fill="#FFFFFF" d="M61.6,97.4l0.2,0c0.8-0.1,1.9-0.1,2.7-0.1c1.4,0,2.4,0.2,3.1,0.7c0.8,0.5,1.3,1.4,1.3,2.5
			c0,0.9-0.4,1.8-1,2.3c-0.3,0.3-0.6,0.4-1.1,0.6c1,1.4,2.8,3.5,3.8,4.6l0.1,0.1h-2.5c-0.2-0.2-0.3-0.3-0.6-0.7
			c-0.6-0.8-0.8-1-1.4-1.8c-0.6-0.8-0.9-1.2-1.2-1.7l-0.1-0.2c-0.3,0-0.5,0-0.6,0c-0.2,0-0.4,0-0.8,0v4.3h-1.9V97.4z M63.4,102.3
			h0.2c0.3,0,0.5,0,0.7,0c1.6,0,2.5-0.6,2.5-1.7c0-1.1-0.8-1.7-2.3-1.7c-0.3,0-0.6,0-1.1,0V102.3z"/>
		<path fill="#FFFFFF" d="M72.7,107.6c0.5-1.5,1.2-3.2,2-5.2c0.6-1.6,1.1-2.7,2-4.7l0.2-0.4h2.1l0.2,0.4c0.8,1.9,1.3,3.2,1.9,4.8
			c0.6,1.6,1.1,3.1,1.8,5l0.2,0.5h-2.1l-0.1-0.3c-0.3-0.9-0.6-1.7-0.9-2.9l-0.1-0.2h-4l-0.1,0.3c-0.2,0.6-0.8,2.1-1,2.9l-0.1,0.3h-2
			L72.7,107.6z M79.2,103.2l-0.1-0.4l-0.4-1.2c-0.1-0.2-0.2-0.6-0.3-1c-0.2-0.7-0.3-0.9-0.5-1.4c-0.1,0.3-0.2,0.4-0.2,0.5l-0.4,0.9
			c-0.1,0.1-0.1,0.2-0.2,0.6c-0.1,0.2-0.2,0.5-0.3,0.9c-0.2,0.4-0.2,0.6-0.3,0.7l-0.1,0.4H79.2z"/>
		<path fill="#FFFFFF" d="M85.7,97.4l0.3,0c1.1-0.1,1.8-0.1,2.6-0.1c2.2,0,3.6,0.4,4.7,1.2c1.1,0.9,1.8,2.3,1.8,4.1
			c0,1.8-0.7,3.4-1.9,4.3c-1.2,0.9-2.6,1.3-4.8,1.3c-0.8,0-1.9,0-2.7-0.1V97.4z M87.6,106.5c0.6,0,0.9,0.1,1.3,0.1
			c1.4,0,2.4-0.3,3.1-0.9c0.7-0.6,1.1-1.7,1.1-2.9c0-2.4-1.4-3.7-4.1-3.7c-0.3,0-0.7,0-1.1,0l-0.3,0V106.5z"/>
		<path fill="#FFFFFF" d="M98.4,97.4h1.9v10.7h-1.9V97.4z"/>
		<path fill="#FFFFFF" d="M103.9,97.4h1.7c0.4,0,0.6,0.1,0.8,0.4l4.2,6.4c0.4,0.6,0.6,1.1,1.1,2.3c-0.2-1.1-0.3-1.5-0.3-2.4v-6.7
			h1.8v10.7h-1.7c-0.4,0-0.6-0.1-0.8-0.4l-4.1-6.4c-0.4-0.6-0.6-1.1-1.1-2.3c0.2,1.1,0.3,1.5,0.3,2.4v6.7h-1.8V97.4z"/>
		<path fill="#FFFFFF" d="M121.9,102.8h4.1v5c-1.3,0.3-2.4,0.4-3.5,0.4c-3.8,0-6-2-6-5.3c0-3.4,2.5-5.7,6.2-5.7
			c1.2,0,2.1,0.2,3.3,0.7v1.8c-1.1-0.6-2.1-0.8-3.2-0.8c-2.6,0-4.2,1.5-4.2,4c0,2.4,1.5,3.8,4.1,3.8c0.5,0,1,0,1.5-0.2v-2h-2.2
			V102.8z"/>
		<path fill="#FFFFFF" d="M142.4,107.6c-1,0.4-2.1,0.7-3.4,0.7c-1.6,0-2.9-0.4-4-1.2c-1.2-1-1.9-2.4-1.9-4.1c0-3.3,2.5-5.7,6.1-5.7
			c1.1,0,2,0.2,3.1,0.7v1.7c-1-0.6-1.8-0.8-2.9-0.8c-2.6,0-4.2,1.5-4.2,3.9s1.6,3.9,4.2,3.9c1.1,0,2-0.2,3-0.8V107.6z"/>
		<path fill="#FFFFFF" d="M150.5,97.2c3.2,0,5.3,2.1,5.3,5.5c0,3.4-2.1,5.6-5.4,5.6c-3.2,0-5.3-2.1-5.3-5.5
			C145,99.4,147.2,97.2,150.5,97.2z M150.4,106.7c2.1,0,3.3-1.5,3.3-3.9c0-2.5-1.2-4-3.3-4c-2.1,0-3.3,1.5-3.3,3.9
			C147.1,105.2,148.3,106.7,150.4,106.7z"/>
		<path fill="#FFFFFF" d="M158.7,107.6c0.1-1.3,0.1-2.4,0.2-3.6c0-0.6,0.1-1.3,0.1-2c0-0.7,0.1-1.1,0.1-1.6l0.2-2.6l0-0.4h2.1
			c0.6,0,0.7,0.1,1.1,1c0.5,1.2,1.4,3.8,1.9,5.2c0.5,1.5,0.6,2,0.7,3.1c0.1-1.1,0.2-1.7,0.7-3.1c0.3-0.8,0.6-1.8,1-2.8
			c0.3-0.9,0.6-1.6,0.7-1.9c0.2-0.6,0.4-0.9,0.4-1c0.1-0.2,0.4-0.3,0.8-0.3h1.9l0,0.4l0.2,2.6c0.1,0.6,0.1,1.5,0.2,2.6
			c0.1,1.8,0.2,3,0.3,4.6l0,0.5h-1.9l0-0.3c-0.1-2.7-0.2-4.2-0.3-6.7c0-0.8-0.1-1.2-0.1-1.5c0-0.2,0-0.6,0-1c-0.2,1-0.3,1.2-0.6,1.9
			l-0.6,1.6c-0.1,0.3-0.2,0.5-0.4,1.1c-0.5,1.5-1,2.8-1.5,4.4l-0.1,0.4h-2l-0.1-0.4c-0.3-1.1-0.6-1.9-0.9-2.9
			c-0.2-0.5-0.3-1.1-0.5-1.5c-0.2-0.6-0.3-0.9-0.4-1.1l-0.6-1.6c-0.3-0.7-0.3-1-0.6-1.9c0,0.5,0,0.8,0,1.1c0,0.3,0,0.7-0.1,1.5
			c-0.1,2.2-0.2,4.3-0.3,6.7l0,0.3h-1.8L158.7,107.6z"/>
		<path fill="#FFFFFF" d="M174.9,97.5l0.2,0c0.9-0.1,1.9-0.1,2.6-0.1c1.5,0,2.5,0.2,3.2,0.8c0.8,0.6,1.2,1.5,1.2,2.6
			c0,1.2-0.5,2.1-1.4,2.7c-0.8,0.5-1.7,0.7-3.2,0.7c-0.2,0-0.4,0-0.6,0h-0.2v4h-1.9V97.5z M176.8,102.5c0.4,0,0.6,0,0.9,0
			c1.8,0,2.6-0.6,2.6-1.8c0-1.2-0.8-1.8-2.3-1.8c-0.2,0-0.6,0-0.9,0l-0.3,0V102.5z"/>
		<path fill="#FFFFFF" d="M183.5,107.6c0.5-1.5,1.2-3.2,2-5.2c0.6-1.6,1.1-2.7,2-4.7l0.2-0.4h2.1l0.2,0.4c0.8,1.9,1.3,3.2,1.9,4.8
			c0.6,1.6,1.1,3.1,1.8,5l0.2,0.5h-2.1l-0.1-0.3c-0.3-0.9-0.6-1.7-0.9-2.9l-0.1-0.2h-4l-0.1,0.3c-0.2,0.6-0.8,2.1-1,2.9l-0.1,0.3h-2
			L183.5,107.6z M190,103.2l-0.1-0.4l-0.4-1.2c-0.1-0.2-0.2-0.6-0.3-1c-0.2-0.7-0.3-0.9-0.5-1.4c-0.1,0.3-0.2,0.4-0.2,0.5l-0.4,0.9
			c-0.1,0.1-0.1,0.2-0.2,0.6c-0.1,0.2-0.2,0.5-0.3,0.9c-0.2,0.4-0.2,0.6-0.3,0.7l-0.1,0.4H190z"/>
		<path fill="#FFFFFF" d="M196.5,97.4h1.7c0.4,0,0.6,0.1,0.8,0.4l4.2,6.4c0.4,0.6,0.6,1.1,1.1,2.3c-0.2-1.1-0.3-1.5-0.3-2.4v-6.7
			h1.8v10.7h-1.7c-0.4,0-0.6-0.1-0.8-0.4l-4.1-6.4c-0.4-0.6-0.6-1.1-1.1-2.3c0.2,1.1,0.3,1.5,0.3,2.4v6.7h-1.8V97.4z"/>
		<path fill="#FFFFFF" d="M212.4,104l-0.2-0.3c-0.8-1.2-1.2-1.8-1.9-2.9c-0.7-1.1-1.1-1.8-1.9-3.1l-0.2-0.3h2.2l0.1,0.1
			c0.5,1,0.8,1.4,1.4,2.4c0.5,0.8,0.9,1.5,1.3,2.1l0.2,0.3l0.2-0.3c0.4-0.6,0.9-1.3,1.3-2c0.5-0.8,1.2-1.9,1.4-2.4l0.1-0.1h2.1
			l-0.2,0.3c-1.2,1.9-2.6,4.2-4,6l-0.2,0.3v4.1h-1.9V104z"/>
	</g>
</g>
</svg>
